<svg width="896" height="48" viewBox="0 0 896 48" fill="none" xmlns="http://www.w3.org/2000/svg">
<g clip-path="url(#clip0_1101:7)">
<g filter="url(#filter0_d_1101:7)">
<path fill-rule="evenodd" clip-rule="evenodd" d="M881.917 11.234C882.608 11.249 883 11.258 883 11.258L881.709 11.334C880.577 11.847 879.324 12.14 878 12.14H867.877L441.502 36.998L29.609 12.14H20C18.679 12.14 17.428 11.848 16.297 11.337L15 11.258C15 11.258 15.384 11.248 16.077 11.231C13.075 9.77196 11 6.70198 11 3.13998V-3.00058C52 -3.00058 55.5 -3.00058 60.5 -3.00058L867.877 -2.99976C872.848 -2.99976 878 -3.00098 887 -3.00098V3.13998C887 6.70498 884.922 9.77598 881.917 11.234Z" fill="white"/>
</g>
</g>
<defs>
<filter id="filter0_d_1101:7" x="3.788" y="-10.213" width="890.424" height="54.423" filterUnits="userSpaceOnUse" color-interpolation-filters="sRGB">
<feFlood flood-opacity="0" result="BackgroundImageFix"/>
<feColorMatrix in="SourceAlpha" type="matrix" values="0 0 0 0 0 0 0 0 0 0 0 0 0 0 0 0 0 0 127 0" result="hardAlpha"/>
<feOffset/>
<feGaussianBlur stdDeviation="3.606"/>
<feColorMatrix type="matrix" values="0 0 0 0 0 0 0 0 0 0 0 0 0 0 0 0 0 0 1 0"/>
<feBlend mode="normal" in2="BackgroundImageFix" result="effect1_dropShadow_1101:7"/>
<feBlend mode="normal" in="SourceGraphic" in2="effect1_dropShadow_1101:7" result="shape"/>
</filter>
<clipPath id="clip0_1101:7">
<rect width="896" height="48" fill="white"/>
</clipPath>
</defs>
</svg>
